<?xml version="1.0" encoding="utf-8"?>
<!-- Generator: Adobe Illustrator 16.0.0, SVG Export Plug-In . SVG Version: 6.00 Build 0)  -->
<!DOCTYPE svg PUBLIC "-//W3C//DTD SVG 1.1//EN" "http://www.w3.org/Graphics/SVG/1.1/DTD/svg11.dtd">
<svg version="1.1" id="logo" xmlns="http://www.w3.org/2000/svg" xmlns:xlink="http://www.w3.org/1999/xlink" x="0px" y="0px"
	 width="425px" height="289px" viewBox="0 0 425 289" enable-background="new 0 0 425 289" xml:space="preserve">
<g>
	<polygon fill="none" points="166.957,205.007 135.724,257.693 198.765,257.693 175.4,218.997 	"/>
	<path fill="#C28F26" d="M264.487,17.049l-8.42-14.039l-8.321,14.039L175.04,139.76l-8.298,13.994l-8.442-13.994l-28.961-47.974
		l-8.492-14.085l-8.249,14.085L0,284h72.823l15.594-26.307h-42.5l67.015-114.438l8.251-14.088l8.49,14.088l21.858,36.182
		l-46.373,78.257L89.564,284h155.792l-15.884-26.307l-47.303-78.372l65.719-110.902l8.324-14.037l8.418,14.037l113.577,189.274
		H246.215L262.095,284h162.558L264.487,17.049z M198.765,257.693h-63.041l31.233-52.687l8.443,13.99L198.765,257.693z"/>
</g>
</svg>
